<svg xmlns="http://www.w3.org/2000/svg" xmlns:svg="http://www.w3.org/2000/svg" id="svg2" width="87" height="87" version="1.1"><metadata id="metadata7"/><g id="layer1" transform="translate(-36.323127,-328.06693)"><path style="fill:#93a1a1;fill-opacity:1;stroke:#000;stroke-width:1;stroke-linecap:butt;stroke-linejoin:miter;stroke-miterlimit:4;stroke-opacity:1;stroke-dasharray:2,1;stroke-dashoffset:0" id="path3837" d="m 73.646255,63.775066 36.823125,-21.259842 0,42.519685 -36.823125,21.259841 z" transform="translate(0,308.27218)"/><path style="fill:#586e75;fill-opacity:1;stroke:#000;stroke-width:1;stroke-linecap:butt;stroke-linejoin:miter;stroke-miterlimit:4;stroke-opacity:1;stroke-dasharray:2,1;stroke-dashoffset:0" id="path3839" d="m 36.823127,42.515224 0,42.519685 36.823128,21.259841 0,-42.519684 z" transform="translate(0,308.27218)"/><path style="fill:none;stroke:#fdf6e3;stroke-width:2;stroke-linecap:butt;stroke-linejoin:miter;stroke-miterlimit:4;stroke-opacity:1;stroke-dasharray:none" id="path3827" d="M 42.960315,53.145145 55.234691,88.578216 67.509067,67.318373" transform="translate(0,308.27218)"/><path style="fill:none;stroke:#fdf6e3;stroke-width:2;stroke-linecap:butt;stroke-linejoin:miter;stroke-miterlimit:4;stroke-opacity:1;stroke-dasharray:none" id="path3829" d="m 79.783443,67.318373 24.548747,-14.173228 -12.274371,7.086614 0,28.346457 12.274371,-7.086614 -24.548747,14.173228" transform="translate(0,308.27218)"/><path style="fill:#002b36;fill-opacity:1;stroke:#000;stroke-width:1;stroke-linecap:butt;stroke-linejoin:miter;stroke-miterlimit:4;stroke-opacity:1;stroke-dasharray:2,1;stroke-dashoffset:0" id="path3833" d="M 36.823127,42.515224 73.646255,21.255381 110.46938,42.515224 73.646255,63.775066 z" transform="translate(0,308.27218)"/><path style="fill:none;stroke:#fdf6e3;stroke-width:2;stroke-linecap:butt;stroke-linejoin:miter;stroke-miterlimit:4;stroke-opacity:1;stroke-dasharray:none" id="path3831" d="M 73.646255,56.688452 49.097503,42.515224 70.577661,40.74357 73.646255,28.341995 98.195006,42.515224" transform="translate(0,308.27218)"/><path style="opacity:.79799996;fill:#6c71c4;fill-opacity:1;stroke:#000;stroke-width:1px;stroke-linecap:butt;stroke-linejoin:miter;stroke-opacity:1" id="path3013" d="M 55.234691,53.145145 73.646255,42.515224 92.057819,53.145145 73.646255,63.775066 z" transform="translate(0,308.27218)"/><path style="opacity:.79799996;fill:#2aa198;fill-opacity:1;stroke:#000;stroke-width:1px;stroke-linecap:butt;stroke-linejoin:miter;stroke-opacity:1" id="path3015" d="m 73.646255,63.775066 0,21.259843 18.411564,-10.629922 0,-21.259842 z" transform="translate(0,308.27218)"/><path style="opacity:.79799996;fill:#dc322f;fill-opacity:1;stroke:#000;stroke-width:1px;stroke-linecap:butt;stroke-linejoin:miter;stroke-opacity:1" id="path3017" d="m 55.234691,53.145145 0,21.259842 18.411564,10.629922 0,-21.259843 z" transform="translate(0,308.27218)"/><path style="fill:none;stroke:#000;stroke-width:1px;stroke-linecap:butt;stroke-linejoin:miter;stroke-opacity:1" id="path3791" d="m 58.303285,58.460106 0,14.173228 12.274376,7.086614" transform="translate(0,308.27218)"/><path style="fill:none;stroke:#000;stroke-width:1px;stroke-linecap:butt;stroke-linejoin:miter;stroke-opacity:1" id="path3793" d="M 76.714849,65.54672 88.989225,58.460106" transform="translate(0,308.27218)"/><path style="fill:none;stroke:#000;stroke-width:1px;stroke-linecap:butt;stroke-linejoin:miter;stroke-opacity:1" id="path3795" d="m 82.852037,62.003413 0,14.173228" transform="translate(0,308.27218)"/><path style="fill:none;stroke:#000;stroke-width:1px;stroke-linecap:butt;stroke-linejoin:miter;stroke-opacity:1" id="path3797" d="m 61.371879,53.145145 24.548752,0" transform="translate(0,308.27218)"/><path style="fill:none;stroke:#000;stroke-width:1px;stroke-linecap:butt;stroke-linejoin:miter;stroke-opacity:1" id="path3799" d="m 73.646255,46.058531 0,14.173228" transform="translate(0,308.27218)"/><path style="fill:none;stroke:#000;stroke-width:1px;stroke-linecap:butt;stroke-linejoin:miter;stroke-opacity:1" id="path3801" d="m 61.371879,70.86168 6.137188,-7.086614 3.068594,12.401575" transform="translate(0,308.27218)"/><path style="fill:none;stroke:#000;stroke-width:1px;stroke-linecap:butt;stroke-linejoin:miter;stroke-opacity:1" id="path3803" d="m 61.371879,67.318373 9.205782,5.314961" transform="translate(0,308.27218)"/><path style="fill:none;stroke:#000;stroke-width:1px;stroke-linecap:butt;stroke-linejoin:miter;stroke-opacity:1" id="path3807" d="m 88.989225,65.54672 -3.068594,1.771653 0,3.543307 3.068594,-1.771653 -3.068594,1.771653 0,3.543307 3.068594,-1.771653" transform="translate(0,308.27218)"/></g></svg>